<svg xmlns="http://www.w3.org/2000/svg" width="800" height="800">
    <g transform="translate(-9647 3237)">
        <rect width="800" height="800" rx="86" transform="translate(9647 -3237)" fill="#595959" />
        <rect width="703" height="637" rx="55" transform="translate(9696 -3117)" fill="#fff" />
        <path fill="#ffde5c" d="M9726-3196h94v47h-94z" />
        <path d="M9752-3149h-32.5a23.5 23.5 0 1 1 0-47h32.5Z" fill="#f55" />
        <path d="M9804-3196h32.5a23.5 23.5 0 0 1 16.62 40.12 23.35 23.35 0 0 1-16.62 6.88H9804Z" fill="#83da76" />
        <path d="M10363.42-2812.87c-4.18-4.77-62.48-77.7-72.73-90.03s-15.32-10.15-21.59-9.26c-6.36.9-80.08 13.34-88.64 14.73-8.55 1.5-13.92 4.87-8.65 12.24 4.67 6.56 53.12 75.3 63.87 90.43l-192.7 46.16-153.41-256.18c-6.07-9.05-7.36-12.23-21.3-11.54-13.92.6-120.27 9.45-127.83 10.15-7.56.6-15.92 3.98-8.36 21.89s128.34 278.16 131.72 285.72 12.14 19.9 32.63 14.92c21-5.07 93.82-24.07 133.61-34.52 21 38.1 63.87 115.3 71.83 126.35 10.54 14.82 17.9 12.33 34.12 7.36 12.74-3.88 198.57-70.73 206.93-74.12 8.36-3.48 13.53-5.87 7.86-14.32-4.18-6.17-53.22-71.83-78.9-106.25 17.62-4.68 80.2-21.3 86.86-23.18 7.86-2 8.95-5.77 4.67-10.55Zm-350.39 71.63c-2.29.5-110.23 26.36-116 27.66s-5.77.7-6.47-1.3-128.33-265.32-130.12-268.6-1.7-5.88 0-5.88 101.97-8.95 105.45-9.15c3.58-.2 3.19.6 4.48 2.79 0 0 141.47 244.13 143.85 248.41 2.59 4.28 1.1 5.57-1.19 6.07Zm304.42 57.1c1.7 2.69 3.49 4.48-1.99 6.37-5.37 1.99-182.75 61.78-186.13 63.27-3.48 1.5-6.17 1.99-10.55-4.48s-62.08-106.25-62.08-106.25l187.83-48.84c4.68-1.5 6.17-2.5 9.15 2.19 2.89 4.77 62.08 85.05 63.77 87.74Zm12.04-133.4c-4.18.9-73.22 18-73.22 18l-56.4-77.4c-1.6-2.29-2.9-4.48 1.09-4.98s68.05-12.13 70.93-12.73c2.89-.7 5.37-1.5 8.95 3.38s52.33 66.66 54.22 69.05c1.8 2.28-1.39 3.68-5.57 4.67Z" />
        <path d="M10246.57-3189.87h-1.9l.99 34.85h2.06a2.44 2.44 0 0 1 1.84.6 1.69 1.69 0 0 1 .34.54 3.79 3.79 0 0 1 .21 1.26v.2a2.9 2.9 0 0 1-.55 2 1.61 1.61 0 0 1-.6.39 3.42 3.42 0 0 1-1.25.2h-11.96a2.44 2.44 0 0 1-1.84-.6 1.69 1.69 0 0 1-.34-.54 3.81 3.81 0 0 1-.21-1.27v-.19a2.9 2.9 0 0 1 .55-2 1.61 1.61 0 0 1 .6-.39 3.42 3.42 0 0 1 1.25-.2h4.22l-.84-31.2-7.77 21.72a5.78 5.78 0 0 1-.36.8 3.78 3.78 0 0 1-.5.7 2.71 2.71 0 0 1-.45.4 2.94 2.94 0 0 1-.92.42 4.83 4.83 0 0 1-1.27.15 5.36 5.36 0 0 1-.88-.06 3.54 3.54 0 0 1-.87-.26 2.7 2.7 0 0 1-.44-.25 2.9 2.9 0 0 1-.67-.67 4.39 4.39 0 0 1-.43-.71l-.22-.52-7.8-21.71-.8 31.2h4.23a2.44 2.44 0 0 1 1.84.58 1.69 1.69 0 0 1 .33.55 3.79 3.79 0 0 1 .22 1.26v.2a2.9 2.9 0 0 1-.55 2 1.61 1.61 0 0 1-.6.38 3.43 3.43 0 0 1-1.25.2h-11.95a2.44 2.44 0 0 1-1.85-.59 1.69 1.69 0 0 1-.33-.54 3.8 3.8 0 0 1-.22-1.27v-.19a2.9 2.9 0 0 1 .55-2 1.61 1.61 0 0 1 .6-.4 3.42 3.42 0 0 1 1.25-.2h2.05l.95-34.84h-1.86a2.44 2.44 0 0 1-1.85-.6 1.69 1.69 0 0 1-.33-.53 3.8 3.8 0 0 1-.22-1.26v-.2a2.9 2.9 0 0 1 .55-2 1.61 1.61 0 0 1 .6-.39 3.42 3.42 0 0 1 1.25-.2h8.04a2.92 2.92 0 0 1 1.45.3 1.64 1.64 0 0 1 .67.75 2.17 2.17 0 0 1 .08.21l8.46 23.2 8.41-23.2a1.69 1.69 0 0 1 1.18-1.11 3.6 3.6 0 0 1 1.07-.15h8.04a2.44 2.44 0 0 1 1.85.6 1.69 1.69 0 0 1 .33.54 3.78 3.78 0 0 1 .22 1.26v.2a2.9 2.9 0 0 1-.55 2 1.61 1.61 0 0 1-.6.39 3.44 3.44 0 0 1-1.25.2Zm85.16 0h-17.75l-.5 12.23a16.5 16.5 0 0 1 8.2-2.13 18.08 18.08 0 0 1 4 .42 13.89 13.89 0 0 1 3.91 1.52 12.94 12.94 0 0 1 5.13 5.39 15.94 15.94 0 0 1 1.6 5.21 20.26 20.26 0 0 1 .17 2.69 17.18 17.18 0 0 1-.66 4.84 14.93 14.93 0 0 1-1.32 3.14 14.18 14.18 0 0 1-5.64 5.54 16.14 16.14 0 0 1-5.7 1.84 20.63 20.63 0 0 1-2.75.18 23.2 23.2 0 0 1-6.9-1.07l-.45-.15a26 26 0 0 1-6.14-2.93q-.29-.18-.57-.38a3.37 3.37 0 0 1-.6-.52 2.06 2.06 0 0 1-.58-1.43 3.24 3.24 0 0 1 .42-1.48q.09-.18.2-.34.99-1.64 2.2-1.64a1.73 1.73 0 0 1 .6.1 2.63 2.63 0 0 1 .47.24l.23.15a22 22 0 0 0 5.37 2.78 17.5 17.5 0 0 0 4.5.98q.62.05 1.25.05a12.96 12.96 0 0 0 2.72-.27 9.88 9.88 0 0 0 2.65-.97 8.41 8.41 0 0 0 3.49-3.46 9.93 9.93 0 0 0 1.06-3.25 13.01 13.01 0 0 0 .14-1.95 12.07 12.07 0 0 0-.28-2.66 9.68 9.68 0 0 0-.85-2.33 8.16 8.16 0 0 0-3.23-3.4 9.05 9.05 0 0 0-3.24-1.1 11.66 11.66 0 0 0-1.7-.11 17.3 17.3 0 0 0-2.45.17 13.15 13.15 0 0 0-2.2.5 14.42 14.42 0 0 0-3.14 1.47q-.43.27-.85.57a2 2 0 0 1-.48.2 4.59 4.59 0 0 1-1.19.17h-.24a7.16 7.16 0 0 1-.74-.03 3.21 3.21 0 0 1-1.28-.37 1.65 1.65 0 0 1-.24-.17 1.57 1.57 0 0 1-.46-.7 3.07 3.07 0 0 1-.14-1.14v-.06l.76-19.05a3.77 3.77 0 0 1 .28-1.3 1.8 1.8 0 0 1 .41-.6 1.68 1.68 0 0 1 .53-.33 4.5 4.5 0 0 1 1.64-.25h20.34a2.44 2.44 0 0 1 1.85.6 1.69 1.69 0 0 1 .33.54 3.8 3.8 0 0 1 .21 1.26v.2a2.9 2.9 0 0 1-.55 2 1.61 1.61 0 0 1-.6.39 3.44 3.44 0 0 1-1.24.2Zm-43.38 40.03h-25.67a2.44 2.44 0 0 1-1.85-.59 1.69 1.69 0 0 1-.33-.54 3.79 3.79 0 0 1-.22-1.27v-.19a2.9 2.9 0 0 1 .56-2 1.61 1.61 0 0 1 .6-.4 3.43 3.43 0 0 1 1.24-.2h10.25v-32.67l-9.49 5.9a3.42 3.42 0 0 1-.43.22 2.27 2.27 0 0 1-.46.13 1.65 1.65 0 0 1-.29.03 1.9 1.9 0 0 1-1.24-.47 3.84 3.84 0 0 1-.85-1.09 4.4 4.4 0 0 1-.35-.73 3.07 3.07 0 0 1-.18-.9v-.12a2.23 2.23 0 0 1 .22-1.02 2.33 2.33 0 0 1 .96-.96l14.35-8.83a3.4 3.4 0 0 1 .72-.33 2.65 2.65 0 0 1 .8-.13 2.08 2.08 0 0 1 .72.12 1.83 1.83 0 0 1 .68.43 2.06 2.06 0 0 1 .55 1.49V-3155.02h9.71a2.44 2.44 0 0 1 1.85.6 1.69 1.69 0 0 1 .33.54 3.8 3.8 0 0 1 .22 1.26v.2a2.9 2.9 0 0 1-.56 2 1.61 1.61 0 0 1-.6.39 3.42 3.42 0 0 1-1.24.2Zm93.54 0h-25.66a2.44 2.44 0 0 1-1.85-.59 1.69 1.69 0 0 1-.33-.54 3.79 3.79 0 0 1-.22-1.27v-.19a2.9 2.9 0 0 1 .55-2 1.61 1.61 0 0 1 .6-.4 3.43 3.43 0 0 1 1.25-.2h10.25v-32.67l-9.49 5.9a3.42 3.42 0 0 1-.43.22 2.27 2.27 0 0 1-.45.13 1.65 1.65 0 0 1-.3.03 1.9 1.9 0 0 1-1.24-.47 3.85 3.85 0 0 1-.85-1.09 4.4 4.4 0 0 1-.35-.73 3.07 3.07 0 0 1-.18-.9v-.12a2.23 2.23 0 0 1 .22-1.02 2.33 2.33 0 0 1 .96-.96l14.34-8.83a3.4 3.4 0 0 1 .72-.33 2.65 2.65 0 0 1 .8-.13 2.08 2.08 0 0 1 .72.12 1.83 1.83 0 0 1 .68.43 2.06 2.06 0 0 1 .55 1.49V-3155.02h9.71a2.44 2.44 0 0 1 1.85.6 1.69 1.69 0 0 1 .33.54 3.79 3.79 0 0 1 .22 1.26v.2a2.9 2.9 0 0 1-.56 2 1.61 1.61 0 0 1-.6.39 3.42 3.42 0 0 1-1.24.2Z" fill="#fff" fill-rule="evenodd" />
    </g>
</svg>
